<?xml version="1.0" standalone="no"?>
<!DOCTYPE svg PUBLIC "-//W3C//DTD SVG 20010904//EN"
 "http://www.w3.org/TR/2001/REC-SVG-20010904/DTD/svg10.dtd">
<svg version="1.0" xmlns="http://www.w3.org/2000/svg"
 width="512.000000pt" height="512.000000pt" viewBox="0 0 512.000000 512.000000"
 preserveAspectRatio="xMidYMid meet">
<metadata>
Created by potrace 1.14, written by Peter Selinger 2001-2017
</metadata>
<g transform="translate(0.000000,512.000000) scale(0.100000,-0.100000)"
fill="#000000" stroke="none">
<path d="M2315 5109 c-800 -83 -1501 -518 -1927 -1196 -487 -774 -516 -1777
-75 -2578 200 -364 487 -676 841 -913 238 -159 600 -311 876 -366 214 -43 295
-51 530 -51 236 0 333 10 532 51 880 184 1615 842 1898 1702 92 278 125 491
125 802 0 301 -32 513 -116 775 -124 390 -330 728 -622 1024 -399 404 -893
653 -1462 737 -123 18 -478 26 -600 13z m-702 -1308 c70 -27 172 -119 207
-185 l24 -44 -31 -64 c-51 -104 -74 -194 -80 -308 -7 -119 -4 -114 -103 -163
-61 -30 -72 -32 -175 -32 -102 0 -114 2 -175 31 -94 45 -153 102 -195 188 -59
119 -63 248 -10 364 48 105 136 184 247 224 72 25 209 20 291 -11z m2173 13
c67 -19 163 -83 204 -134 17 -21 43 -65 58 -97 24 -52 27 -69 27 -168 0 -103
-2 -114 -32 -177 -41 -88 -113 -160 -201 -201 -63 -30 -74 -32 -177 -32 -100
0 -116 3 -172 29 -93 43 -100 53 -106 171 -6 108 -30 199 -79 304 l-31 65 22
42 c26 48 90 116 143 151 87 58 236 79 344 47z m-1083 -120 c182 -47 336 -189
397 -367 30 -87 37 -224 16 -307 -60 -240 -243 -408 -482 -441 -136 -19 -278
16 -397 98 -233 158 -311 462 -185 721 64 132 216 256 364 297 68 19 214 18
287 -1z m-1629 -844 c116 -79 237 -115 381 -114 108 0 194 18 283 59 l52 24
26 -51 26 -52 -28 -20 c-51 -36 -195 -179 -241 -240 -89 -119 -172 -288 -204
-413 l-13 -53 -319 0 -319 0 4 223 c4 211 5 226 32 302 15 44 46 112 68 150
40 67 174 215 196 215 6 0 31 -14 56 -30z m3110 -42 c84 -85 143 -180 182
-293 27 -76 28 -91 32 -302 l4 -223 -319 0 -319 0 -17 68 c-25 96 -85 225
-152 328 -55 85 -223 265 -289 311 l-28 19 26 52 26 51 52 -24 c125 -57 313
-77 438 -46 66 16 205 79 240 109 14 12 31 21 39 22 7 0 46 -33 85 -72z
m-2112 -338 c70 -52 177 -104 274 -132 112 -32 315 -32 426 0 107 30 176 63
263 123 l75 51 27 -17 c59 -38 201 -193 251 -274 56 -92 106 -218 128 -326 9
-45 17 -166 21 -337 l6 -268 -977 0 -978 0 4 298 c4 290 5 299 32 387 51 168
143 321 258 431 66 63 117 104 129 104 5 0 32 -18 61 -40z"/>
</g>
</svg>
